<?xml version="1.0" encoding="UTF-8"?><svg xmlns="http://www.w3.org/2000/svg" xmlns:xlink="http://www.w3.org/1999/xlink" height="503.9" preserveAspectRatio="xMidYMid meet" version="1.0" viewBox="-4.7 -3.9 508.7 503.9" width="508.7" zoomAndPan="magnify"><g id="change1_1"><path d="M348,189.5c0-9.2-3.6-17.8-10-24.2l-3.1-3.1c-13.4-13.4-35.1-13.4-48.5,0l-16,16L249.3,157 c-3.9-3.9-10.2-3.9-14.1,0c-3.9,3.9-3.9,10.2,0,14.1l21.1,21.1L230.5,218l-21.1-21.1c-3.9-3.9-10.2-3.9-14.1,0 c-3.9,3.9-3.9,10.2,0,14.1l21.1,21.1l-25.8,25.8l-21.1-21.1c-3.9-3.9-10.2-3.9-14.1,0c-3.9,3.9-3.9,10.2,0,14.1l21.1,21.1 l-15.3,15.3c-13.4,13.4-13.4,35.1,0,48.5l3.1,3.1c6.5,6.5,15.1,10,24.2,10s17.8-3.6,24.2-10l15.3-15.3l21.1,21.1 c1.9,1.9,4.5,2.9,7,2.9c2.5,0,5.1-1,7-2.9c3.9-3.9,3.9-10.2,0-14.1l-21.1-21.1l25.8-25.8l21.1,21.1c1.9,1.9,4.5,2.9,7,2.9 s5.1-1,7-2.9c3.9-3.9,3.9-10.2,0-14.1l-21.1-21.1l25.8-25.8l21.1,21.1c1.9,1.9,4.5,2.9,7,2.9c2.5,0,5.1-1,7-2.9 c3.9-3.9,3.9-10.2,0-14.1L322,229.7l16-16C344.4,207.2,348,198.6,348,189.5z M198.8,324.8c-2.7,2.7-6.3,4.2-10.2,4.2 s-7.4-1.5-10.2-4.2c0,0,0,0,0,0l-3.1-3.1c-5.6-5.6-5.6-14.7,0-20.3l15.3-15.3l23.5,23.5L198.8,324.8z M228.2,295.4l-23.5-23.5 l25.8-25.8l23.5,23.5L228.2,295.4z M268,255.5L244.6,232l25.8-25.8l23.5,23.5L268,255.5z M323.9,199.6l-16,16l-23.5-23.5l16-16 c2.8-2.8,6.5-4.2,10.2-4.2c3.7,0,7.4,1.4,10.2,4.2l3.1,3.1c2.7,2.7,4.2,6.3,4.2,10.2C328.1,193.3,326.6,196.9,323.9,199.6z M479.9,26.4c-1-2.9-3.3-5.2-6.2-6.2C417.2,0.9,356.9-3.9,298.1,6c-0.2,0-0.4,0.1-0.7,0.1c-5.9,1-11.8,2.1-17.7,3.4 c-66.2,14.7-126.7,48-174.9,96.2C56.7,153.9,23.4,214.4,8.7,280.7c-1.3,6-2.5,12.1-3.5,18.2c-0.1,0.3-0.1,0.5-0.1,0.8 c-9.8,58.5-4.9,118.6,14.3,174.9c1,2.9,3.3,5.2,6.2,6.2C63,493.6,102.1,500,141.4,500c7.9,0,15.8-0.3,23.7-0.8c0,0,0,0,0,0 c0,0,0.1,0,0.1,0c18.2-1.2,36.3-3.8,54.2-7.8c66.2-14.7,126.7-48,174.9-96.2c48.2-48.2,81.5-108.7,96.2-174.9 c1.3-5.8,2.4-11.7,3.4-17.6c0.1-0.3,0.1-0.5,0.1-0.8C504,143.2,499.2,82.9,479.9,26.4z M36.6,463.5c-12-36.9-17.5-75.5-16.5-114.1 c27.6,12.7,53.8,31,76.4,53.6c22.8,22.8,41.2,49.1,53.9,76.9C111.9,481,73.4,475.5,36.6,463.5z M171.6,478.7 c-13.7-32.5-34.6-63.4-61-89.8c-26.2-26.2-56.9-47.1-89.2-60.7c0.4-4.6,0.9-9.2,1.5-13.7c35.2,14.3,68.5,36.6,97,65.1 c28.7,28.7,51.1,62.2,65.3,97.6C180.7,477.8,176.2,478.3,171.6,478.7z M471.1,216c-13.9,62.5-45.3,119.7-90.8,165.2 c-45.5,45.5-102.6,76.9-165.2,90.8c-3.2,0.7-6.4,1.4-9.6,2c-15.2-39.4-39.7-76.8-71.4-108.5c-31.5-31.5-68.7-56-107.9-71.2 c0.6-3.1,1.2-6.2,1.9-9.3c13.9-62.5,45.3-119.7,90.8-165.2C164.5,74.3,221.6,42.9,284.1,29c2.9-0.6,5.8-1.2,8.6-1.8 c15.1,39.5,39.7,76.9,71.5,108.6c31.8,31.8,69.2,56.3,108.7,71.5C472.3,210.2,471.7,213.1,471.1,216z M476.2,187.2 c-35.5-14.2-69.1-36.7-97.9-65.4c-28.8-28.8-51.2-62.4-65.4-97.9c4.6-0.6,9.1-1.1,13.7-1.6c13.7,32.6,34.7,63.6,61.1,90 c26.4,26.4,57.4,47.4,90.1,61.1C477.3,178.1,476.8,182.6,476.2,187.2z M479,152.3c-27.9-12.7-54.4-31.2-77.3-54 c-22.8-22.8-41.3-49.3-54-77.3c38.8-1.2,77.7,4.3,114.8,16.4C474.7,74.7,480.2,113.5,479,152.3z" fill="#FFF"/></g></svg>