<?xml version="1.0" encoding="UTF-8" standalone="no"?><svg xmlns="http://www.w3.org/2000/svg" xmlns:xlink="http://www.w3.org/1999/xlink" fill="#ffffff" height="34" preserveAspectRatio="xMidYMid meet" version="1" viewBox="0.0 6.0 48.0 34.0" width="48" zoomAndPan="magnify"><g id="change1_1"><path d="M40 36c2.21 0 3.98-1.79 3.98-4l.02-22c0-2.21-1.79-4-4-4h-32c-2.21 0-4 1.79-4 4v22c0 2.21 1.79 4 4 4h-8c0 2.21 1.79 4 4 4h40c2.21 0 4-1.79 4-4h-8zm-32-26h32v22h-32v-22zm16 28c-1.1 0-2-.9-2-2s.9-2 2-2 2 .9 2 2-.9 2-2 2z" fill="inherit"/></g></svg>