<?xml version="1.0" standalone="no"?>
<!DOCTYPE svg PUBLIC "-//W3C//DTD SVG 20010904//EN"
 "http://www.w3.org/TR/2001/REC-SVG-20010904/DTD/svg10.dtd">
<svg version="1.0" xmlns="http://www.w3.org/2000/svg"
 width="1607.000000pt" height="1607.000000pt" viewBox="0 0 1607.000000 1607.000000"
 preserveAspectRatio="xMidYMid meet">
<metadata>
Created by potrace 1.14, written by Peter Selinger 2001-2017
</metadata>
<g transform="translate(0.000000,1607.000000) scale(0.100000,-0.100000)"
fill="#000000" stroke="none">
<path d="M7998 15928 c-31 -64 -138 -195 -234 -287 -327 -313 -756 -516 -1189
-562 -303 -32 -620 55 -862 236 -39 29 -74 51 -77 47 -3 -3 -7 -480 -7 -1061
-1 -890 -10 -1599 -17 -1376 -1 33 -5 78 -9 100 l-7 40 -8 -35 c-12 -53 -22
-1197 -13 -1525 8 -293 16 -328 33 -150 l9 90 2 -150 c2 -275 51 -416 187
-550 81 -79 188 -146 315 -199 93 -38 356 -116 476 -141 407 -84 710 -177 918
-282 176 -89 347 -237 440 -381 22 -34 43 -62 47 -62 3 0 30 32 58 70 201 271
547 441 1191 585 529 118 725 182 891 291 81 54 143 121 187 203 67 126 63
-24 55 2378 l-7 2173 -41 -44 c-106 -112 -300 -193 -539 -225 -100 -14 -347
-14 -457 -1 -120 15 -260 46 -365 81 -99 33 -355 156 -395 189 l-25 21 31 -15
c35 -17 136 -56 144 -56 3 0 -20 15 -50 33 -214 125 -381 273 -534 470 -68 87
-92 106 -62 50 34 -66 146 -204 245 -303 67 -67 83 -85 44 -52 -98 84 -226
225 -291 320 -32 48 -61 93 -63 100 -3 8 -11 -1 -21 -20z m-8 -61 c0 -9 -82
-111 -135 -168 -67 -73 -55 -52 17 29 26 29 62 73 79 98 29 40 39 50 39 41z
m-200 -230 c0 -2 -19 -21 -42 -42 l-43 -40 40 43 c36 39 45 47 45 39z m-100
-90 c0 -2 -12 -14 -27 -28 l-28 -24 24 28 c23 25 31 32 31 24z m2590 -292
c-19 -14 -36 -25 -39 -25 -10 0 53 49 63 50 6 0 -5 -11 -24 -25z m-1810 -82
c0 -5 -29 -23 -65 -42 -36 -18 -88 -53 -115 -78 -28 -25 -51 -39 -55 -33 -12
19 -79 10 -109 -14 l-29 -24 34 -7 c47 -10 102 -39 144 -76 35 -31 36 -31 58
-13 12 11 25 23 29 29 10 13 -31 55 -54 55 -30 0 -21 15 35 58 52 40 186 118
191 111 4 -6 53 -177 65 -224 39 -163 39 -415 0 -540 -30 -97 -69 -182 -120
-256 -177 -262 -515 -448 -886 -487 -66 -7 -73 -7 -73 10 0 28 58 287 78 353
38 118 115 289 147 323 2 2 25 -6 50 -17 26 -12 51 -21 55 -21 5 0 18 17 30
38 13 20 25 32 27 26 4 -13 -35 -84 -47 -84 -5 0 -30 9 -56 20 -26 11 -48 19
-49 18 -1 -2 -17 -28 -34 -59 -40 -71 -118 -281 -81 -218 6 10 21 15 40 14 16
-1 30 2 30 7 0 5 10 4 21 -3 15 -8 19 -8 15 0 -4 6 -3 11 3 11 5 0 13 -4 16
-10 3 -5 11 -10 16 -10 6 0 7 5 4 10 -4 6 10 10 34 10 24 0 41 5 41 11 0 7 10
5 25 -5 30 -20 36 -20 29 -2 -5 12 2 12 37 3 32 -8 44 -7 47 1 3 9 9 9 24 1
18 -10 20 -9 15 4 -5 14 -1 15 26 10 18 -3 34 -7 36 -9 2 -2 10 1 17 7 9 7 19
7 35 -1 17 -9 23 -9 29 0 5 7 15 10 24 7 21 -8 48 2 40 15 -5 7 5 9 25 6 17
-2 31 -1 31 3 0 5 8 5 17 2 13 -5 15 -2 10 11 -6 15 -3 17 12 13 11 -3 22 0
24 7 3 7 10 6 23 -4 18 -15 18 -14 1 13 -14 22 -15 27 -3 27 20 0 48 30 42 45
-2 7 4 15 15 18 11 3 23 15 26 26 3 12 10 21 17 21 11 0 42 59 38 73 -3 10 6
9 28 -3 16 -8 19 -4 29 38 21 97 33 164 28 168 -6 7 -242 31 -376 40 l-114 7
-27 -33 -27 -34 -41 32 c-30 24 -49 32 -78 31 -22 -1 -76 10 -122 25 -46 14
-86 26 -91 26 -6 0 -41 -63 -41 -75 0 -3 6 -5 13 -5 25 0 134 -58 186 -100
l54 -43 32 39 c18 22 36 36 39 33 7 -7 -51 -89 -63 -89 -5 0 -22 13 -39 28
-35 33 -185 112 -212 112 -10 0 -21 8 -25 19 -4 14 -12 17 -33 13 -15 -3 -21
-7 -14 -9 6 -3 12 -8 12 -11 0 -10 -96 -9 -106 1 -4 4 -17 7 -29 7 -18 0 -27
-11 -44 -57 -47 -128 -72 -332 -57 -455 l7 -55 37 3 c70 6 76 9 94 55 42 111
88 227 102 262 l16 37 -35 17 c-19 9 -37 24 -40 34 -7 22 14 69 31 69 10 0 7
-10 -7 -35 l-20 -34 46 -22 c25 -12 44 -27 42 -33 -111 -273 -168 -444 -202
-608 -10 -45 -21 -87 -25 -91 -4 -5 -18 45 -31 110 -20 102 -23 149 -24 348 0
248 9 313 61 452 129 343 422 554 838 602 95 11 176 13 176 4z m1592 -463 c70
0 118 -4 118 -10 0 -5 -40 -39 -90 -76 -49 -36 -90 -72 -90 -79 0 -7 15 -56
33 -109 19 -53 30 -96 26 -96 -4 0 -9 6 -11 14 -2 8 -38 39 -81 70 l-78 56
-94 -70 c-51 -39 -98 -70 -103 -70 -6 0 5 47 24 105 19 57 34 110 34 118 0 16
-142 117 -164 117 -9 0 -16 4 -16 10 0 5 49 11 113 12 l112 3 37 110 c21 61
38 112 38 115 1 3 17 -46 37 -107 l37 -113 118 0z m-3882 102 l35 -107 119 -5
118 -5 -45 -32 c-24 -18 -67 -51 -95 -73 l-51 -40 30 -87 c16 -47 27 -88 25
-91 -3 -2 -39 21 -80 52 -42 31 -78 56 -81 56 -3 0 -18 -11 -32 -25 -36 -33
-163 -119 -168 -113 -5 4 56 195 68 215 5 7 -5 21 -25 36 -96 70 -124 87 -139
87 -10 0 -21 4 -24 10 -3 6 39 10 112 12 l118 3 34 108 c19 59 37 107 40 107
3 0 22 -49 41 -108z m801 86 c0 -13 15 -61 32 -108 l33 -85 117 -5 117 -5 -93
-70 c-70 -54 -91 -75 -89 -91 2 -18 -6 -22 -67 -34 -39 -7 -68 -17 -66 -21 8
-11 -170 -148 -180 -137 -1 1 13 54 32 116 19 63 33 115 31 116 -35 30 -152
106 -162 106 -8 0 -18 4 -21 10 -3 6 39 10 112 12 l118 3 34 108 c34 103 50
131 52 85z m2099 -83 l33 -105 106 -1 c58 -1 112 -1 119 0 30 4 6 -23 -78 -85
-49 -37 -90 -70 -90 -73 0 -3 11 -42 25 -86 14 -44 25 -83 25 -88 0 -6 -52 28
-132 87 l-28 20 -22 -20 c-42 -37 -170 -126 -175 -121 -4 5 50 198 61 216 7
10 -139 121 -159 121 -8 0 -17 4 -20 10 -3 6 38 10 107 12 l113 3 32 90 c17
50 33 98 36 108 3 9 7 17 10 17 2 0 19 -47 37 -105z m-510 -439 c0 -3 -4 -8
-10 -11 -5 -3 -10 -1 -10 4 0 6 5 11 10 11 6 0 10 -2 10 -4z m-2235 -26 c3 -5
1 -10 -4 -10 -6 0 -11 5 -11 10 0 6 2 10 4 10 3 0 8 -4 11 -10z m2900 0 c3 -5
1 -10 -4 -10 -6 0 -11 5 -11 10 0 6 2 10 4 10 3 0 8 -4 11 -10z m-3058 -278
c14 -46 23 -85 20 -88 -2 -3 -9 15 -16 38 -16 63 -28 78 -36 46 -4 -15 -4 -32
0 -37 3 -6 8 -21 10 -33 7 -34 31 -54 48 -39 10 8 52 11 132 9 l116 -3 -53
-39 c-29 -22 -72 -55 -95 -73 l-42 -33 31 -93 c17 -50 35 -98 41 -104 6 -9 6
-13 -1 -13 -6 0 -15 6 -19 13 -16 26 -165 131 -171 120 -10 -14 -174 -133
-184 -133 -10 0 -8 7 37 137 l32 93 -21 18 c-46 41 -127 92 -145 92 -11 0 -23
4 -26 10 -3 6 39 10 112 12 l118 3 32 90 c17 50 34 99 38 110 l7 20 5 -20 c2
-11 16 -57 30 -103z m803 98 c0 -12 14 -61 31 -110 l31 -89 121 -3 120 -3 -63
-45 c-35 -25 -78 -58 -96 -73 l-32 -28 34 -101 c37 -112 39 -120 21 -98 -7 8
-45 40 -86 70 -84 62 -65 64 -196 -29 -42 -29 -78 -51 -80 -50 -1 2 11 47 27
99 45 142 48 128 -37 188 -42 28 -82 52 -90 52 -7 0 -17 4 -20 10 -3 6 39 10
112 12 l118 3 35 107 c34 103 50 132 50 88z m2256 -200 l119 -5 -92 -69 c-51
-37 -93 -71 -93 -75 0 -3 15 -52 34 -108 18 -57 29 -103 25 -103 -5 0 -9 4 -9
9 0 10 -152 121 -165 121 -4 0 -48 -30 -97 -66 -49 -36 -92 -63 -95 -61 -4 5
50 198 61 216 5 8 -129 108 -169 127 -14 6 14 10 92 12 72 2 114 7 121 15 5 7
24 56 42 110 l32 98 37 -108 37 -108 120 -5z m829 0 l120 -5 -92 -68 c-51 -38
-93 -75 -93 -82 0 -7 15 -56 33 -109 19 -53 30 -96 25 -96 -4 0 -8 4 -8 9 0
10 -152 121 -165 121 -4 0 -47 -29 -96 -65 -48 -36 -93 -65 -98 -65 -5 0 6 46
25 102 19 56 34 109 34 117 0 15 -116 104 -164 126 -16 7 7 11 91 13 72 2 115
7 121 15 5 7 20 46 32 87 41 139 37 138 78 15 l37 -110 120 -5z m93 -585 c12
-12 26 -2172 15 -2252 -13 -88 -58 -187 -115 -251 -39 -44 -38 -44 10 5 29 30
66 80 82 111 36 71 40 39 5 -37 -40 -84 -140 -177 -260 -238 -154 -79 -274
-114 -695 -203 -398 -84 -572 -136 -754 -224 -166 -80 -285 -174 -392 -310
-17 -21 -36 -37 -42 -35 -20 7 110 162 185 221 123 99 301 192 465 244 32 9
56 19 54 22 -9 8 -174 -52 -282 -103 -141 -66 -249 -139 -345 -232 l-77 -74
-43 47 c-103 112 -154 152 -306 243 -146 87 -375 169 -623 224 -639 142 -765
178 -903 259 -140 81 -227 190 -274 343 -17 57 -18 115 -16 1110 2 578 6 1069
9 1092 l5 43 487 3 c792 6 3803 -1 3810 -8z m-3571 -2771 c-3 -3 -12 -4 -19
-1 -8 3 -5 6 6 6 11 1 17 -2 13 -5z m46 -11 c-7 -2 -19 -2 -25 0 -7 3 -2 5 12
5 14 0 19 -2 13 -5z m77 -13 c20 -6 21 -8 5 -8 -11 0 -31 4 -45 8 -20 6 -21 8
-5 8 11 0 31 -4 45 -8z m145 -30 c92 -23 62 -24 -40 0 -44 10 -69 18 -55 18
14 0 57 -8 95 -18z m102 -26 c-3 -3 -12 -4 -19 -1 -8 3 -5 6 6 6 11 1 17 -2
13 -5z m40 -10 c-3 -3 -12 -4 -19 -1 -8 3 -5 6 6 6 11 1 17 -2 13 -5z m40 -10
c-3 -3 -12 -4 -19 -1 -8 3 -5 6 6 6 11 1 17 -2 13 -5z m40 -10 c-3 -3 -12 -4
-19 -1 -8 3 -5 6 6 6 11 1 17 -2 13 -5z"/>
<path d="M7963 14908 l-20 -34 86 -41 c47 -23 105 -57 128 -77 l41 -36 31 37
c17 21 31 41 31 45 0 18 -82 71 -150 97 -122 47 -124 48 -147 9z"/>
<path d="M7814 14748 c-13 -25 -14 -33 -4 -36 49 -17 172 -88 204 -118 l38
-37 19 24 c40 53 44 67 23 90 -33 37 -199 109 -251 109 -7 0 -20 -14 -29 -32z"/>
<path d="M6901 14467 c-19 -7 -35 -20 -37 -29 -3 -23 -1 -23 46 8 56 37 53 43
-9 21z"/>
<path d="M6132 14098 c-6 -23 -9 -44 -7 -46 2 -2 9 15 15 38 6 23 9 44 7 46
-2 3 -9 -14 -15 -38z"/>
<path d="M6100 13995 c0 -5 13 -19 70 -70 31 -29 30 -13 -2 25 -15 18 -68 53
-68 45z"/>
<path d="M6233 13943 c15 -2 39 -2 55 0 15 2 2 4 -28 4 -30 0 -43 -2 -27 -4z"/>
<path d="M7153 13943 c9 -2 23 -2 30 0 6 3 -1 5 -18 5 -16 0 -22 -2 -12 -5z"/>
<path d="M7645 13180 c-4 -6 -172 -10 -471 -10 l-464 0 0 -94 c0 -74 -3 -95
-15 -100 -8 -3 -15 -10 -15 -15 0 -10 100 -84 141 -106 18 -9 19 -32 21 -577
2 -313 3 -688 3 -835 l0 -268 -62 -33 -63 -33 0 -74 c0 -41 -4 -77 -10 -80
-19 -12 -10 -24 38 -47 26 -13 53 -29 60 -35 7 -7 19 -13 25 -13 7 0 6 5 -3
11 -12 9 -12 10 3 5 10 -3 24 -6 30 -6 7 0 6 -5 -3 -11 -12 -9 -12 -10 3 -5
10 3 43 -6 75 -21 31 -15 61 -26 66 -25 16 5 46 -10 40 -20 -4 -6 1 -8 14 -3
13 3 39 -2 66 -13 24 -11 57 -23 74 -27 l30 -6 1 97 c1 54 7 104 12 111 8 8 7
18 -3 32 -26 37 -106 118 -123 125 -16 6 -16 41 -10 478 3 259 8 475 11 480 7
12 155 -3 186 -18 14 -8 43 -36 65 -63 39 -52 57 -61 66 -37 4 9 23 16 49 18
l43 3 3 220 c3 178 6 221 18 228 8 4 14 12 14 17 0 15 -30 12 -36 -3 -4 -10
-19 -13 -54 -9 l-49 4 -32 -52 c-17 -28 -43 -56 -56 -61 -13 -5 -60 -9 -103
-9 l-79 0 5 29 c6 26 4 28 -20 24 l-26 -5 0 285 c0 253 2 286 16 291 9 3 59 3
111 0 115 -9 129 -18 174 -125 38 -92 54 -110 71 -86 10 12 32 17 83 19 l70 3
6 214 c4 152 9 216 17 219 14 4 16 22 3 22 -6 0 -13 -4 -16 -10z"/>
<path d="M9405 13180 c-4 -6 -172 -10 -471 -10 l-464 0 0 -91 c0 -74 -3 -94
-17 -104 -9 -7 -13 -17 -10 -22 7 -12 105 -81 138 -98 18 -9 19 -31 21 -577 2
-313 3 -688 3 -835 l0 -268 -62 -33 -63 -33 0 -74 c0 -41 -4 -77 -10 -80 -5
-3 -10 -11 -10 -16 0 -12 98 -59 123 -59 10 0 16 -4 13 -9 -4 -5 4 -7 16 -3
16 4 19 2 13 -8 -5 -9 -4 -11 3 -6 7 4 25 0 42 -8 16 -9 44 -23 60 -32 17 -8
35 -12 42 -8 7 5 8 3 3 -6 -6 -9 -2 -10 15 -5 14 5 20 3 16 -3 -6 -10 83 -46
92 -37 3 3 -1 5 -8 5 -7 0 -11 2 -8 5 8 9 38 -6 32 -16 -3 -5 1 -9 8 -10 7 0
25 -2 39 -4 l27 -3 1 99 c1 57 7 108 13 119 11 17 4 27 -47 83 -33 35 -68 67
-78 70 -18 5 -19 24 -12 478 3 260 8 476 11 481 7 12 155 -3 186 -18 14 -8 43
-36 65 -63 39 -52 57 -61 66 -37 4 9 23 16 49 18 l43 3 3 220 c3 178 6 221 18
228 8 4 14 12 14 17 0 15 -30 12 -36 -3 -4 -10 -19 -13 -54 -9 l-49 4 -32 -52
c-17 -28 -43 -56 -56 -61 -13 -5 -60 -9 -103 -9 l-79 0 5 29 c6 26 4 28 -20
24 l-26 -5 0 285 c0 253 2 286 16 291 9 3 59 3 111 0 115 -9 129 -18 174 -125
38 -92 54 -110 71 -86 10 12 32 17 83 19 l70 3 6 214 c4 152 9 216 17 219 14
4 16 22 3 22 -6 0 -13 -4 -16 -10z m-545 -2400 c18 -12 2 -12 -25 0 -13 6 -15
9 -5 9 8 0 22 -4 30 -9z"/>
<path d="M9963 10804 c-38 -29 -159 -87 -253 -120 -36 -12 -58 -23 -50 -23 43
-2 292 112 326 150 23 26 15 24 -23 -7z"/>
<path d="M9595 10650 c-13 -5 -14 -9 -5 -9 8 0 24 4 35 9 13 5 14 9 5 9 -8 0
-24 -4 -35 -9z"/>
<path d="M9410 10604 c-74 -18 -126 -33 -115 -33 22 -1 266 57 274 64 8 9 -23
3 -159 -31z"/>
<path d="M9238 10563 c6 -2 18 -2 25 0 6 3 1 5 -13 5 -14 0 -19 -2 -12 -5z"/>
<path d="M9160 10550 c-20 -6 -21 -8 -5 -8 11 0 31 4 45 8 20 6 21 8 5 8 -11
0 -31 -4 -45 -8z"/>
<path d="M9108 10533 c7 -3 16 -2 19 1 4 3 -2 6 -13 5 -11 0 -14 -3 -6 -6z"/>
<path d="M9058 10523 c7 -3 16 -2 19 1 4 3 -2 6 -13 5 -11 0 -14 -3 -6 -6z"/>
<path d="M8978 10503 c7 -3 16 -2 19 1 4 3 -2 6 -13 5 -11 0 -14 -3 -6 -6z"/>
<path d="M8817 10473 c-32 -9 -56 -17 -54 -20 5 -4 129 26 136 33 8 7 -23 2
-82 -13z"/>
<path d="M7730 15669 c-154 -142 -315 -251 -539 -365 -91 -46 -118 -64 -99
-64 67 0 312 131 480 258 94 71 202 171 196 183 -2 4 6 16 16 28 34 37 13 22
-54 -40z"/>
<path d="M10411 14885 c-6 -146 -6 -274 -1 -375 l6 -105 4 120 c3 66 3 190 0
275 -4 91 -7 126 -9 85z"/>
<path d="M10405 12833 c-4 -136 -5 -605 -2 -1041 6 -861 7 -840 -49 -958 -59
-126 -179 -231 -351 -307 -151 -68 -261 -100 -613 -178 -426 -94 -694 -176
-870 -264 -101 -51 -218 -123 -238 -148 -26 -31 6 -25 59 10 60 41 236 133
253 133 6 0 -36 -25 -93 -56 -184 -98 -322 -214 -411 -344 -42 -62 -73 -80
-108 -61 -10 5 -47 52 -81 103 -60 89 -61 91 -22 54 22 -22 43 -37 46 -34 10
10 -76 127 -128 174 -222 200 -489 313 -1027 434 -378 85 -532 128 -674 187
-32 13 -60 22 -63 20 -2 -3 17 -19 43 -36 67 -44 45 -38 -74 19 -173 83 -287
187 -361 329 -78 150 -74 110 -78 914 l-4 717 -22 -5 c-12 -2 -67 -9 -122 -15
-55 -6 -147 -19 -205 -30 -58 -10 -161 -29 -230 -41 -69 -12 -152 -27 -185
-34 -182 -39 -467 -103 -555 -125 -19 -5 -71 -19 -115 -30 -112 -29 -286 -75
-375 -100 -41 -11 -104 -28 -140 -37 -36 -9 -74 -20 -85 -24 -11 -5 -74 -24
-140 -43 -162 -47 -307 -93 -575 -182 -124 -42 -238 -79 -255 -84 -16 -5 -75
-25 -130 -45 -55 -21 -149 -55 -210 -77 -150 -55 -575 -222 -655 -258 -36 -16
-88 -38 -115 -48 -28 -11 -68 -29 -90 -40 -22 -11 -74 -35 -115 -52 -138 -59
-164 -72 -390 -185 -231 -115 -295 -149 -319 -169 -30 -24 12 -559 69 -876 27
-151 50 -291 50 -312 0 -17 -22 -18 -325 -18 l-325 0 0 -175 0 -175 8035 0
8035 0 0 175 0 175 -329 0 c-182 0 -332 4 -335 8 -3 4 6 66 20 138 75 398 119
784 112 979 l-3 79 -50 29 c-135 81 -582 297 -865 420 -191 83 -541 223 -735
295 -44 16 -89 33 -100 37 -129 49 -714 246 -860 290 -49 14 -99 30 -110 35
-11 4 -56 18 -100 30 -44 12 -100 29 -125 37 -25 8 -88 26 -140 40 -52 14
-117 32 -145 40 -108 31 -353 95 -410 108 -55 12 -149 34 -235 55 -115 28
-403 89 -495 105 -229 39 -384 65 -410 69 -17 2 -92 12 -167 22 l-138 17 0
116 c-1 122 -24 448 -33 457 -2 3 -8 -107 -12 -243z m-5353 -838 c11 -5 14
-36 13 -158 l-2 -152 -154 -32 c-85 -18 -201 -44 -259 -57 -58 -14 -163 -39
-235 -56 -71 -16 -188 -45 -260 -64 -325 -87 -336 -90 -750 -211 -178 -52
-886 -292 -960 -326 -11 -5 -108 -42 -215 -83 -107 -41 -249 -98 -315 -127
-131 -56 -164 -70 -210 -88 -103 -40 -402 -183 -410 -195 -6 -10 -3 -58 9
-143 23 -164 84 -527 97 -576 5 -20 7 -42 4 -47 -4 -6 -71 -10 -161 -10 -180
0 -161 -13 -188 135 -41 226 -72 438 -96 650 -6 50 -13 109 -16 133 l-5 42
163 79 c218 105 359 171 363 171 2 0 71 30 152 66 583 259 1346 529 2088 738
167 46 661 171 800 201 44 10 105 23 135 31 30 7 102 22 160 33 88 17 231 47
237 50 1 1 8 -1 15 -4z m6104 -25 c235 -47 403 -84 629 -139 186 -45 309 -77
690 -181 319 -87 1164 -369 1345 -448 14 -6 113 -46 220 -88 107 -42 209 -82
225 -89 17 -8 138 -62 270 -120 310 -137 573 -265 579 -280 4 -12 -35 -368
-53 -480 -45 -274 -78 -451 -86 -466 -8 -12 -312 -12 -320 0 -3 5 0 31 6 58
42 187 117 679 106 705 -3 8 -22 23 -44 32 -21 10 -56 26 -78 36 -267 123
-358 162 -640 277 -135 55 -511 198 -545 208 -14 4 -38 13 -55 21 -124 54
-969 319 -1275 399 -58 15 -134 36 -170 46 -132 37 -553 137 -799 189 -80 17
-149 35 -155 39 -10 8 -11 311 -2 311 2 0 70 -13 152 -30z m-709 -912 c-7
-136 -31 -222 -87 -306 -105 -157 -274 -260 -581 -351 -157 -47 -142 -36 26
20 83 27 202 75 265 106 97 49 127 70 196 138 122 121 174 249 174 431 0 41 3
74 6 74 4 0 4 -51 1 -112z m-830 -704 c-3 -3 -12 -4 -19 -1 -8 3 -5 6 6 6 11
1 17 -2 13 -5z m-40 -10 c-3 -3 -12 -4 -19 -1 -8 3 -5 6 6 6 11 1 17 -2 13 -5z
m-40 -10 c-3 -3 -12 -4 -19 -1 -8 3 -5 6 6 6 11 1 17 -2 13 -5z m-470 -110
c-3 -3 -12 -4 -19 -1 -8 3 -5 6 6 6 11 1 17 -2 13 -5z m-40 -10 c-3 -3 -12 -4
-19 -1 -8 3 -5 6 6 6 11 1 17 -2 13 -5z m-40 -10 c-3 -3 -12 -4 -19 -1 -8 3
-5 6 6 6 11 1 17 -2 13 -5z m-228 -68 c-8 -9 -142 -56 -146 -52 -3 2 20 13 49
24 29 10 60 22 68 25 19 7 35 8 29 3z"/>
<path d="M0 7125 l0 -1835 8035 0 8035 0 0 1835 0 1835 -8035 0 -8035 0 0
-1835z m1050 785 l0 -220 -55 0 -55 0 0 -525 0 -525 170 0 170 0 0 60 0 60
215 0 215 0 0 -275 0 -275 -705 0 -705 0 0 215 0 215 55 0 55 0 0 525 0 525
-55 0 -55 0 0 220 0 220 375 0 375 0 0 -220z m10187 68 l153 -153 0 -290 0
-290 -152 -152 -153 -153 -272 0 -273 0 0 -150 0 -150 55 0 55 0 0 -215 0
-215 -375 0 -375 0 0 215 0 215 55 0 55 0 0 525 0 525 -55 0 -55 0 0 220 0
220 592 0 593 0 152 -152z m-8217 -503 l0 -195 -165 0 -165 0 0 30 0 30 -125
0 -125 0 0 -120 0 -120 30 0 c27 0 30 3 30 30 l0 30 165 0 165 0 0 -220 0
-220 -165 0 -165 0 0 25 c0 21 -5 25 -30 25 l-30 0 0 -115 0 -115 125 0 125 0
0 30 0 30 165 0 165 0 0 -195 0 -195 -535 0 -535 0 0 165 0 165 45 0 45 0 0
400 0 400 -45 0 -45 0 0 165 0 165 535 0 535 0 0 -195z m1360 30 l0 -165 -35
0 c-19 0 -35 -3 -35 -6 0 -3 70 -183 157 -400 l156 -394 44 0 43 0 0 -165 0
-165 -280 0 -280 0 0 165 0 165 24 0 c23 0 24 2 15 30 l-11 30 -193 0 -193 0
-11 -30 c-9 -28 -8 -30 15 -30 l24 0 0 -165 0 -165 -280 0 -280 0 0 165 0 165
43 0 43 0 157 393 c86 215 157 395 157 400 0 4 -13 7 -30 7 l-30 0 0 165 0
165 390 0 390 0 0 -165z m1532 48 l118 -118 0 -162 0 -163 -200 0 -200 0 0 92
c0 80 -3 95 -22 115 -20 21 -30 23 -128 23 -103 0 -107 -1 -133 -28 l-27 -28
0 -346 c0 -429 -12 -398 153 -398 100 0 113 2 134 22 20 18 23 31 23 90 l0 68
-55 0 -55 0 0 150 0 150 255 0 255 0 0 -287 0 -288 -117 -117 -118 -118 -320
0 -320 0 -118 118 -117 117 0 495 0 495 117 117 118 118 320 0 320 0 117 -117z
m938 -48 l0 -165 -40 0 -40 0 0 -377 c0 -459 -13 -423 149 -423 94 0 107 2
128 22 l23 21 0 379 0 378 -45 0 -45 0 0 165 0 165 290 0 290 0 0 -165 0 -165
-45 0 -45 0 0 -447 0 -448 -117 -117 -118 -118 -320 0 -320 0 -118 118 -117
117 0 448 0 447 -40 0 -40 0 0 165 0 165 285 0 285 0 0 -165z m2020 -30 l0
-195 -165 0 -165 0 0 30 0 30 -130 0 -131 0 3 -117 3 -118 28 -3 c24 -3 27 0
27 27 l0 31 165 0 165 0 0 -220 0 -220 -165 0 -165 0 0 25 c0 21 -5 25 -30 25
l-30 0 0 -115 0 -115 130 0 130 0 0 30 0 30 165 0 165 0 0 -195 0 -195 -540 0
-540 0 2 163 3 162 43 3 42 3 0 400 0 399 -45 0 -45 0 0 158 c0 87 3 162 7
165 3 4 246 7 540 7 l533 0 0 -195z m3920 30 l0 -165 -35 0 c-19 0 -35 -3 -35
-6 0 -3 70 -183 157 -400 l156 -394 44 0 43 0 0 -165 0 -165 -280 0 -280 0 0
165 0 165 24 0 c23 0 24 2 15 30 l-11 30 -193 0 -193 0 -11 -30 c-9 -28 -8
-30 15 -30 l24 0 0 -165 0 -165 -280 0 -280 0 0 165 0 165 43 0 43 0 157 393
c86 215 157 395 157 400 0 4 -13 7 -30 7 l-30 0 0 165 0 165 390 0 390 0 0
-165z m1532 48 l118 -118 0 -162 0 -163 -200 0 -200 0 0 92 c0 80 -3 95 -22
115 -20 21 -30 23 -128 23 -103 0 -107 -1 -133 -28 l-27 -28 0 -346 c0 -429
-12 -398 153 -398 100 0 113 2 134 22 20 18 23 31 23 90 l0 68 -55 0 -55 0 0
150 0 150 255 0 255 0 0 -287 0 -288 -117 -117 -118 -118 -320 0 -320 0 -118
118 -117 117 0 495 0 495 117 117 118 118 320 0 320 0 117 -117z m1438 -78 l0
-195 -165 0 -165 0 0 30 0 30 -125 0 -125 0 0 -120 0 -120 25 0 c21 0 25 5 25
30 l0 30 165 0 165 0 0 -220 0 -220 -165 0 -165 0 0 25 c0 20 -5 25 -25 25
l-25 0 0 -115 0 -115 125 0 125 0 0 30 0 30 165 0 165 0 0 -195 0 -195 -535 0
-535 0 0 165 0 165 40 0 40 0 0 400 0 400 -40 0 -40 0 0 165 0 165 535 0 535
0 0 -195z"/>
<path d="M10540 7530 l0 -160 133 0 c133 0 133 0 160 28 26 27 27 33 27 132 0
99 -1 105 -27 132 -27 28 -27 28 -160 28 l-133 0 0 -160z"/>
<path d="M3942 7005 c-23 -58 -42 -110 -42 -116 0 -5 38 -9 85 -9 47 0 85 4
85 8 0 4 -19 56 -43 115 l-43 108 -42 -106z"/>
<path d="M12352 7005 c-23 -58 -42 -110 -42 -116 0 -5 38 -9 85 -9 47 0 85 4
85 8 0 4 -19 56 -43 115 l-43 108 -42 -106z"/>
<path d="M0 4790 c0 -77 4 -140 9 -140 5 0 107 -11 227 -25 121 -14 262 -30
314 -35 52 -6 129 -14 170 -20 41 -5 143 -16 225 -25 83 -8 188 -20 235 -25
47 -6 229 -27 405 -46 176 -19 376 -42 445 -49 69 -8 145 -16 170 -20 25 -3
110 -12 190 -20 80 -9 199 -22 265 -30 66 -7 194 -21 285 -30 91 -9 174 -18
186 -20 12 -3 40 -32 64 -67 40 -58 158 -216 170 -228 3 -3 25 -32 50 -65 25
-33 50 -64 56 -70 5 -5 35 -41 66 -80 31 -38 65 -79 75 -90 10 -11 34 -40 53
-65 19 -24 42 -52 50 -61 17 -18 48 -53 135 -153 33 -39 71 -82 85 -96 14 -14
54 -59 90 -100 127 -144 229 -249 575 -595 317 -317 451 -446 630 -605 33 -30
62 -56 65 -59 11 -14 223 -196 355 -307 39 -32 72 -61 75 -64 3 -3 43 -37 90
-74 146 -116 163 -130 187 -153 13 -13 27 -23 31 -23 4 0 21 -13 37 -28 17
-15 46 -39 65 -52 19 -13 37 -27 40 -30 3 -3 34 -27 70 -53 36 -27 76 -57 90
-68 14 -11 47 -35 75 -55 27 -20 88 -63 135 -97 168 -121 459 -317 471 -317 4
0 9 -4 11 -8 2 -6 117 -81 196 -127 9 -6 69 -41 132 -79 63 -38 129 -77 145
-86 133 -77 172 -99 260 -145 55 -29 129 -69 165 -89 108 -61 105 -60 137 -43
15 8 62 32 103 54 41 22 113 60 160 84 47 24 87 47 90 50 3 3 31 20 63 37 31
18 83 46 115 64 31 17 59 35 60 40 2 4 8 8 13 8 16 0 331 196 512 319 54 36
115 77 136 91 55 35 181 123 195 135 6 6 27 21 46 35 45 31 379 279 405 301
11 10 58 47 105 83 47 37 92 72 100 79 8 7 42 34 75 61 33 26 82 67 109 90 27
22 70 59 96 81 26 22 73 63 105 90 32 28 68 57 79 65 12 8 26 19 31 26 6 6 39
37 75 69 379 336 873 819 1180 1154 52 57 114 124 137 148 23 23 53 58 68 76
15 17 58 66 95 107 37 41 103 118 146 170 43 52 81 97 84 100 3 3 30 34 59 70
30 36 57 67 61 70 3 3 57 73 120 155 63 83 136 178 162 212 26 34 48 67 48 71
0 21 33 33 116 42 49 6 127 15 174 20 185 22 442 51 575 65 77 8 241 26 365
40 124 14 286 32 360 40 74 8 216 24 315 35 99 11 261 29 360 40 99 11 221 25
270 30 150 18 516 58 583 65 l62 7 0 139 0 139 -8035 0 -8035 0 0 -140z m3903
-530 c54 -6 120 -10 146 -10 48 0 50 -1 113 -72 36 -40 78 -89 94 -108 16 -19
58 -66 94 -105 36 -39 89 -97 119 -130 242 -270 891 -918 1211 -1210 41 -37
80 -73 85 -79 6 -6 44 -40 85 -76 41 -36 77 -67 80 -70 3 -3 39 -34 80 -70 41
-36 84 -74 96 -85 12 -11 34 -31 50 -44 16 -13 56 -47 89 -76 33 -28 96 -80
140 -115 44 -35 82 -67 85 -70 3 -3 21 -17 42 -32 20 -15 42 -34 50 -41 26
-26 245 -194 373 -287 72 -51 146 -105 165 -119 204 -150 569 -374 805 -495
l126 -65 37 17 c44 21 268 141 333 180 26 15 73 42 105 61 33 19 91 56 131 83
40 26 76 48 82 48 5 0 11 3 13 8 2 4 37 30 78 56 106 70 483 343 575 417 11
10 70 56 130 105 61 48 139 112 175 142 36 30 76 63 90 75 46 38 145 122 150
127 3 3 39 34 80 70 41 35 77 67 80 70 3 3 23 20 45 39 418 356 1284 1224
1744 1750 30 34 60 70 67 79 9 13 35 18 111 23 54 4 149 10 211 14 61 5 112 5
112 1 0 -9 -77 -110 -136 -181 -168 -198 -310 -357 -534 -600 -110 -119 -889
-895 -999 -995 -57 -52 -116 -106 -131 -120 -101 -93 -215 -196 -251 -228 -24
-20 -97 -84 -164 -142 -234 -205 -510 -430 -710 -580 -55 -41 -107 -80 -115
-87 -98 -78 -424 -301 -590 -405 -125 -78 -318 -188 -330 -188 -5 0 -10 -3
-12 -7 -4 -10 -263 -135 -335 -162 l-51 -20 -54 22 c-60 24 -357 174 -463 234
-38 21 -137 81 -218 132 -126 79 -208 134 -412 275 -16 12 -50 37 -75 57 -25
19 -67 51 -95 69 -27 19 -52 36 -55 40 -3 3 -21 17 -40 30 -19 14 -42 30 -50
37 -8 6 -98 78 -200 159 -102 81 -187 150 -190 153 -3 4 -48 42 -100 85 -52
43 -126 106 -164 140 -38 34 -78 68 -90 76 -12 8 -48 39 -81 70 -75 70 -173
160 -305 280 -334 305 -900 872 -1204 1205 -60 66 -114 125 -120 130 -6 6 -40
44 -76 85 -36 41 -72 82 -80 90 -8 8 -32 36 -53 62 -21 26 -43 53 -50 60 -16
17 -117 143 -150 189 -15 20 -24 38 -21 41 6 6 70 3 227 -12z m2894 -379 c43
-15 70 -33 105 -71 55 -59 72 -107 71 -201 -1 -128 -67 -221 -275 -386 -95
-75 -178 -161 -178 -185 0 -4 106 -8 235 -8 l235 0 0 -85 0 -85 -360 0 -360 0
0 73 c0 61 4 79 29 122 46 78 118 162 211 243 141 122 217 197 233 228 26 51
30 96 11 142 -19 50 -55 72 -114 72 -80 0 -132 -40 -147 -111 l-6 -32 -75 7
c-41 3 -88 6 -105 6 -28 0 -29 1 -22 38 31 171 174 269 377 257 42 -2 103 -13
135 -24z m918 -5 c137 -68 197 -219 198 -496 0 -210 -36 -345 -116 -437 -63
-72 -186 -110 -301 -91 -77 12 -122 36 -175 93 -85 92 -114 202 -115 430 -1
225 30 349 107 433 71 76 146 103 270 98 59 -3 91 -11 132 -30z m933 4 c109
-38 174 -136 174 -259 -1 -144 -58 -226 -285 -406 -89 -71 -167 -153 -167
-176 0 -5 106 -9 235 -9 l235 0 0 -85 0 -85 -360 0 -360 0 0 70 c0 53 6 82 21
113 36 70 105 152 201 239 250 226 270 250 270 324 0 96 -49 141 -144 132 -63
-7 -99 -34 -118 -89 -8 -24 -15 -46 -16 -47 -2 -2 -48 -1 -103 3 -116 9 -115
7 -80 101 52 139 182 210 363 198 43 -2 104 -13 134 -24z m902 -430 l0 -440
115 0 115 0 0 -75 0 -75 -350 0 -350 0 0 75 0 75 130 0 130 0 0 350 c0 193 -2
350 -5 350 -2 0 -54 -31 -115 -70 -61 -38 -115 -70 -120 -70 -6 0 -10 35 -10
78 l0 77 128 82 127 82 103 1 102 0 0 -440z m-3546 106 c85 -50 129 -125 128
-217 -1 -181 -186 -301 -347 -225 -129 60 -182 208 -119 334 63 127 221 177
338 108z"/>
<path d="M7492 3727 c-61 -29 -87 -157 -79 -397 7 -246 34 -308 136 -318 62
-6 101 19 126 80 28 70 41 267 28 413 -13 140 -35 204 -79 223 -31 15 -101 14
-132 -1z"/>
<path d="M5845 3541 c-102 -25 -165 -104 -165 -206 0 -136 142 -237 271 -193
145 49 190 235 83 342 -47 47 -128 71 -189 57z m134 -98 l36 -36 -28 -10 c-24
-8 -32 -5 -48 12 -25 27 -73 27 -99 1 -26 -26 -28 -109 -2 -138 29 -35 67 -38
97 -8 19 19 32 25 51 20 31 -8 30 -19 -4 -54 -39 -38 -90 -47 -148 -25 -37 14
-50 25 -65 59 -33 73 -19 151 36 194 21 17 41 22 82 22 50 0 58 -3 92 -37z"/>
</g>
</svg>
