<?xml version="1.0" standalone="no"?>
<!DOCTYPE svg PUBLIC "-//W3C//DTD SVG 20010904//EN"
 "http://www.w3.org/TR/2001/REC-SVG-20010904/DTD/svg10.dtd">
<svg version="1.0" xmlns="http://www.w3.org/2000/svg"
 width="1024.000000pt" height="1024.000000pt" viewBox="0 0 1024.000000 1024.000000"
 preserveAspectRatio="xMidYMid meet">
<metadata>
Created by potrace 1.14, written by Peter Selinger 2001-2017
</metadata>
<g transform="translate(0.000000,1024.000000) scale(0.100000,-0.100000)"
fill="#000000" stroke="none">
<path d="M5117 9360 c-16 -5 -35 -14 -43 -21 -8 -6 -14 -9 -14 -6 0 7 -77 -26
-207 -89 -51 -25 -93 -49 -93 -55 0 -6 -4 -8 -10 -4 -5 3 -17 -2 -27 -12 -10
-10 -29 -24 -43 -30 -34 -18 -63 -36 -75 -49 -5 -6 -31 -26 -57 -44 -27 -18
-48 -37 -48 -42 0 -5 -5 -6 -10 -3 -6 3 -13 -1 -16 -9 -3 -9 -10 -16 -14 -16
-7 0 -39 -29 -165 -149 -74 -70 -235 -250 -235 -262 0 -3 -10 -17 -21 -30 -12
-13 -29 -35 -38 -49 -9 -14 -21 -32 -28 -40 -47 -60 -83 -112 -83 -120 0 -6
-4 -10 -10 -10 -5 0 -10 -4 -10 -9 0 -6 -13 -29 -29 -53 -16 -24 -44 -70 -62
-103 -18 -33 -35 -62 -38 -65 -3 -3 -19 -31 -35 -62 -29 -55 -32 -58 -84 -69
-29 -6 -59 -8 -67 -5 -8 3 -15 2 -17 -2 -2 -4 -48 -18 -103 -30 -130 -30 -130
-30 -130 -32 0 -1 -192 -60 -240 -73 -45 -13 -212 -71 -220 -77 -5 -4 -46 -19
-90 -34 -43 -16 -108 -41 -143 -57 -35 -16 -68 -27 -73 -24 -5 4 -9 1 -9 -4 0
-6 -4 -11 -9 -11 -5 0 -26 -8 -47 -17 -22 -9 -41 -17 -44 -18 -3 -1 -27 -11
-53 -23 -27 -12 -51 -22 -53 -22 -2 0 -37 -15 -77 -34 -40 -18 -84 -37 -97
-41 -39 -12 -41 -27 -8 -57 18 -15 34 -28 37 -28 3 0 35 -27 69 -60 35 -33 68
-60 73 -60 5 0 9 -3 9 -7 0 -5 23 -32 50 -62 l50 -54 0 -873 c0 -485 -4 -874
-9 -874 -4 0 -19 8 -32 18 -13 10 -44 29 -69 41 -25 13 -67 36 -95 51 -67 37
-128 68 -137 69 -5 1 -16 9 -26 19 -10 9 -35 26 -57 37 -22 11 -42 23 -45 26
-12 14 -100 69 -110 69 -6 0 -13 7 -16 15 -4 8 -10 15 -16 15 -11 0 -81 51
-86 63 -2 4 -9 7 -15 7 -12 0 -69 48 -165 140 -55 53 -76 57 -66 12 3 -15 7
-38 9 -52 2 -14 4 -25 5 -25 2 0 4 -9 5 -20 9 -63 13 -81 18 -95 4 -13 91
-454 102 -520 2 -14 7 -36 11 -50 7 -30 15 -77 17 -107 1 -13 5 -23 9 -23 4 0
6 -13 6 -29 -1 -15 2 -33 5 -38 3 -5 9 -25 12 -44 10 -59 56 -293 62 -319 4
-14 5 -29 4 -34 -1 -5 1 -16 5 -25 4 -9 8 -23 9 -31 1 -8 6 -28 9 -45 4 -16 9
-46 11 -65 2 -19 5 -35 6 -35 0 0 3 -13 5 -30 7 -57 33 -195 38 -203 3 -5 44
-33 91 -63 48 -30 98 -64 113 -76 15 -13 31 -23 35 -23 5 0 41 -22 80 -48 40
-26 115 -72 167 -102 52 -29 98 -58 102 -64 4 -6 8 -221 8 -478 l0 -468 53
-41 c28 -23 77 -58 107 -78 30 -20 81 -55 112 -79 31 -23 62 -42 68 -42 5 0
10 -4 10 -8 0 -5 12 -14 26 -20 15 -7 22 -17 18 -24 -4 -6 -3 -8 4 -4 6 3 17
-1 26 -9 8 -9 18 -15 21 -15 4 1 10 -2 13 -6 4 -4 1 -3 -7 1 -11 6 -13 4 -8
-9 5 -12 2 -16 -10 -14 -12 2 -18 -4 -19 -20 -1 -12 3 -25 7 -28 5 -3 9 -11 9
-17 0 -7 -4 -6 -10 3 -5 8 -10 11 -10 5 0 -5 -5 -3 -10 5 -6 9 -10 10 -10 3 0
-6 5 -15 10 -18 6 -4 8 -11 5 -16 -4 -5 -1 -9 4 -9 15 0 14 -27 -1 -36 -7 -4
-10 -4 -6 0 4 5 -5 27 -19 50 -15 22 -26 46 -26 53 0 14 -35 25 -42 13 -3 -5
-3 -28 1 -52 3 -24 7 -56 9 -73 2 -16 5 -32 6 -35 1 -3 3 -9 4 -15 0 -5 5 -28
10 -50 5 -22 9 -43 9 -46 3 -18 51 -109 58 -109 4 0 8 -5 8 -11 0 -40 183
-175 350 -259 93 -47 302 -126 380 -145 8 -2 44 -16 80 -30 89 -37 114 -47
119 -45 2 1 7 -2 10 -7 8 -12 250 -133 266 -133 7 0 15 -7 19 -15 3 -8 12 -15
21 -15 8 0 15 -6 15 -12 0 -7 21 -35 45 -61 25 -27 45 -51 45 -55 0 -12 171
-186 228 -231 28 -24 52 -40 52 -37 0 2 13 -7 30 -22 16 -15 62 -44 102 -66
40 -21 81 -45 91 -54 9 -8 17 -12 17 -7 0 4 7 2 15 -5 8 -7 15 -10 15 -6 0 4
10 0 23 -8 23 -15 135 -53 177 -60 14 -3 25 -5 25 -6 0 -11 311 -17 365 -7 19
4 46 9 60 11 87 15 330 116 330 137 0 4 7 6 15 3 8 -4 15 -2 15 4 0 5 8 12 18
15 25 7 169 117 232 179 62 59 122 126 160 176 14 19 30 39 35 45 6 7 21 29
35 49 13 20 28 34 32 32 4 -3 8 -1 8 5 0 5 23 20 50 32 27 12 50 26 50 31 0 4
3 7 8 6 7 -2 143 62 152 72 3 3 14 7 25 8 11 2 25 8 31 13 15 13 184 68 184
61 0 -4 4 -2 8 3 7 10 184 75 210 77 6 1 12 5 12 9 0 5 16 11 35 15 19 3 35
10 35 15 0 5 8 9 19 9 10 0 30 9 44 20 15 12 29 21 32 21 13 -1 43 15 82 41
23 15 44 28 47 28 9 0 101 71 104 81 2 5 9 9 15 9 24 1 131 163 146 221 2 8 9
37 17 64 7 28 12 62 10 77 -2 15 1 25 5 22 8 -5 15 75 9 101 -1 6 -3 16 -4 23
-4 22 -46 46 -59 33 -8 -8 -8 -11 2 -11 7 0 9 -4 6 -10 -3 -6 -11 -10 -17 -10
-6 0 -8 3 -5 7 4 3 3 11 -2 17 -6 7 15 29 65 66 40 30 74 58 74 63 0 4 5 7 11
7 6 0 16 6 23 12 8 7 24 20 36 28 12 8 30 22 40 30 10 8 37 31 60 49 24 19 49
41 56 49 12 11 14 97 14 477 l0 463 63 32 c34 18 65 37 68 42 3 5 12 10 20 11
8 2 29 13 46 25 17 12 35 22 40 22 6 0 18 9 28 20 10 11 23 20 28 20 6 0 25
11 43 25 18 14 37 25 42 25 6 0 12 3 14 8 2 4 47 36 101 72 61 41 99 73 103
87 3 13 9 23 13 23 3 0 7 19 8 43 5 94 7 107 12 107 6 0 8 19 13 108 1 17 5
32 9 32 3 0 9 21 13 48 5 39 69 379 82 435 2 9 6 27 9 40 2 12 8 36 12 52 4
17 7 37 8 45 0 8 3 20 7 25 4 6 5 23 4 38 -2 15 0 27 3 27 4 0 12 30 19 68 7
37 28 148 47 247 20 99 37 191 39 205 2 14 6 39 10 55 14 63 17 80 31 160 2
11 6 28 10 38 4 9 4 17 0 17 -14 0 -71 -46 -134 -107 -36 -35 -68 -63 -72 -63
-4 0 -14 -6 -21 -12 -7 -7 -40 -30 -72 -52 -33 -21 -64 -43 -70 -47 -33 -27
-119 -81 -176 -110 -36 -18 -71 -39 -78 -46 -8 -7 -18 -11 -23 -8 -5 4 -9 2
-9 -3 0 -5 -19 -17 -42 -28 -24 -10 -45 -21 -48 -24 -16 -17 -193 -100 -199
-93 -3 4 -4 396 -1 870 l5 863 95 91 c52 50 111 103 130 118 19 14 37 28 40
31 3 3 14 10 25 16 36 20 30 42 -17 61 -24 10 -46 17 -50 15 -5 -1 -8 2 -8 7
0 8 -20 18 -50 26 -3 1 -25 11 -50 23 -25 12 -51 22 -57 22 -7 0 -13 4 -13 8
0 5 -6 9 -12 9 -19 1 -42 7 -48 13 -3 3 -23 13 -45 22 -223 91 -244 99 -255
100 -3 0 -14 5 -25 11 -11 6 -25 12 -32 13 -6 1 -46 16 -90 32 -109 42 -116
45 -135 48 -10 2 -23 5 -30 6 -7 2 -15 5 -18 8 -8 9 -143 50 -162 50 -10 0
-18 5 -18 12 0 6 -2 9 -5 6 -3 -3 -40 4 -83 14 -108 27 -204 49 -224 51 -10 1
-18 4 -18 8 0 3 -14 5 -31 3 -23 -3 -36 3 -55 23 -13 14 -24 30 -24 35 0 4
-22 45 -50 89 -27 44 -50 83 -50 85 0 3 -27 45 -60 94 -33 49 -60 94 -60 99 0
5 -3 11 -8 13 -4 2 -28 32 -54 68 -26 36 -51 70 -55 75 -5 6 -22 28 -38 50
-73 97 -296 319 -410 407 -16 12 -36 28 -42 34 -7 7 -28 22 -48 34 -19 12 -35
26 -35 31 0 5 -4 9 -10 9 -8 0 -57 29 -96 57 -38 28 -264 140 -299 149 -14 3
-25 10 -25 16 0 5 -6 8 -12 7 -7 -2 -30 5 -52 14 -41 18 -84 20 -129 7z
m-3393 -3705 c20 -13 36 -21 36 -17 0 4 4 2 8 -3 11 -16 114 -81 140 -89 12
-4 22 -12 22 -17 0 -6 4 -8 9 -5 5 4 11 3 13 -2 1 -4 26 -22 53 -40 78 -50 87
-56 100 -69 7 -7 15 -9 19 -6 3 4 6 1 6 -5 0 -6 9 -13 20 -17 25 -8 21 -40 -6
-60 -18 -12 -21 -12 -21 0 0 8 4 12 9 9 4 -3 5 3 1 13 -6 16 -5 16 10 4 15
-12 17 -12 11 3 -3 9 -10 16 -14 16 -12 0 -34 -30 -27 -37 4 -3 -1 -12 -11
-20 -16 -12 -16 -13 2 -6 14 4 17 3 12 -6 -4 -6 -4 -11 1 -10 4 1 14 1 22 0
11 -1 11 -4 0 -18 -12 -15 -12 -16 3 -10 10 3 20 1 24 -5 4 -7 3 -8 -4 -4 -7
4 -12 2 -12 -5 0 -8 -5 -7 -17 2 -9 8 -19 13 -22 13 -15 -3 -50 20 -44 29 3 6
1 7 -4 4 -11 -7 -136 72 -187 117 -27 24 -31 25 -39 10 -6 -10 -5 -25 2 -41
14 -30 14 -33 0 -33 -5 0 -8 4 -4 9 3 5 0 13 -6 17 -7 4 -9 3 -5 -4 3 -6 2
-13 -3 -16 -5 -4 -11 -1 -14 6 -2 7 -3 6 -2 -2 0 -8 7 -14 14 -12 7 1 10 -2 6
-7 -9 -15 -35 -1 -35 18 0 13 -2 14 -9 2 -8 -12 -11 -10 -14 10 -11 51 -5 99
11 99 8 0 13 3 9 6 -8 8 10 25 46 44 18 9 24 16 15 19 -7 2 -16 9 -20 15 -4 6
-11 11 -15 11 -11 0 -76 45 -90 63 -20 24 -17 -48 7 -163 19 -94 25 -149 13
-115 -3 8 -10 26 -16 40 -11 27 -12 34 -22 95 -11 75 -14 90 -20 115 -14 53
-17 80 -8 80 6 0 27 -11 47 -25z m6943 8 c4 -11 -26 -27 -35 -19 -2 3 -2 12 2
21 6 18 27 16 33 -2z m-13 -41 c3 -5 -1 -9 -9 -9 -8 0 -12 4 -9 9 3 4 7 8 9 8
2 0 6 -4 9 -8z m-6459 -262 c3 -5 -1 -10 -10 -10 -9 0 -13 5 -10 10 3 6 8 10
10 10 2 0 7 -4 10 -10z m-432 -35 c-3 -9 -8 -14 -10 -11 -3 3 -2 9 2 15 9 16
15 13 8 -4z m88 8 c0 -5 2 -15 4 -24 1 -9 -3 -16 -9 -16 -7 0 -13 11 -14 24
-2 20 17 35 19 16z m-81 -47 c0 -3 -4 -8 -10 -11 -5 -3 -10 -1 -10 4 0 6 5 11
10 11 6 0 10 -2 10 -4z m7 -78 c2 -17 0 -19 -7 -8 -5 8 -6 18 -4 22 8 12 10
10 11 -14z m161 -785 c0 -19 5 -45 21 -123 15 -66 13 -78 -5 -52 -9 13 -13 29
-10 37 3 8 1 17 -5 21 -6 3 -10 18 -9 32 1 15 1 30 0 35 -2 7 -3 40 -1 57 2
17 10 11 9 -7z m6467 -50 c-2 -10 -4 -20 -5 -23 -1 -3 -1 -16 0 -29 1 -17 -2
-21 -12 -15 -10 6 -10 4 1 -9 9 -12 10 -17 2 -17 -7 0 -9 -5 -6 -11 7 -10 -21
-49 -36 -49 -4 0 -5 9 -2 20 3 11 10 20 15 20 5 0 7 4 4 8 -3 5 1 20 9 35 8
17 10 27 3 27 -6 0 -7 7 -3 18 4 9 8 23 8 30 0 6 6 12 13 12 7 0 11 -8 9 -17z
m-71 -162 c3 -5 -12 -18 -34 -30 -30 -16 -38 -17 -33 -5 3 8 8 13 10 10 3 -2
13 4 24 15 21 21 26 23 33 10z m-84 -55 c0 -3 -4 -8 -10 -11 -5 -3 -10 -1 -10
4 0 6 5 11 10 11 6 0 10 -2 10 -4z m-651 -1623 c2 -2 -3 -3 -11 -3 -9 0 -19 7
-22 16 -6 15 -4 15 11 3 10 -7 20 -15 22 -16z m-4726 -51 c15 -16 15 -18 -1
-18 -10 0 -19 8 -19 18 -1 10 0 18 1 18 2 0 10 -8 19 -18z m17 -183 c0 -6 -4
-7 -10 -4 -5 3 -10 11 -10 16 0 6 5 7 10 4 6 -3 10 -11 10 -16z"/>
<path d="M1790 5423 c0 -6 8 -17 18 -24 16 -13 16 -13 2 6 -8 11 -16 22 -17
24 -2 2 -3 0 -3 -6z"/>
</g>
</svg>
